<?xml version="1.0" encoding="utf-8"?>
<svg xmlns="http://www.w3.org/2000/svg" viewBox="479.8592 481.7405 1083.3909 1090.6406" width="1083.3909px" height="1090.6406px">
  <g transform="matrix(1, 0, 0, 1, 0, -1.1368683772161603e-13)">
    <path d="M 887.948 1353.03 C 887.265 1353.09 879.633 1039.99 881.738 1039.98 C 882.93 1039.98 879.015 998.91 885.856 940.365 C 887.539 925.96 878.565 906.572 883.112 891.442 C 886.939 878.708 896.069 867.026 905.354 855.512 C 909.471 849.217 914.981 840.829 922.23 829.835 C 927.993 821.095 954.316 765.477 1008.98 744.857 C 1031.69 736.289 1054.25 725.53 1075.76 719.285 C 1113.23 708.406 1145.33 706.622 1145.77 706.572 C 1159.32 705.114 1172.69 704.704 1186.3 704.734 C 1188.48 704.733 1190.65 704.731 1192.83 704.729 C 1197.36 704.726 1201.89 704.73 1206.42 704.739 C 1212.15 704.751 1217.88 704.744 1223.61 704.732 C 1228.1 704.725 1232.58 704.727 1237.07 704.732 C 1239.18 704.734 1241.29 704.732 1243.4 704.727 C 1263.06 704.693 1282.6 705.928 1302.06 708.812 C 1303.23 708.984 1304.39 709.155 1305.59 709.331 C 1359.76 717.557 1414.04 737.416 1454.77 774.961 C 1456.81 776.823 1458.89 778.601 1461 780.375 C 1480.01 797.02 1493.4 819.335 1504 842 C 1504.78 843.634 1504.78 843.634 1505.58 845.301 C 1524.84 887.628 1529.41 938.466 1522 984 C 1521.79 985.324 1521.79 985.324 1521.58 986.675 C 1514.82 1028.31 1490.34 1065.32 1457.3 1091.13 C 1455.04 1092.96 1453.02 1094.91 1451 1097 C 1451.83 1097.45 1452.65 1097.9 1453.5 1098.36 C 1501.77 1125.08 1539.62 1166.06 1555.05 1219.65 C 1557.21 1227.75 1558.78 1235.92 1560.19 1244.19 C 1560.44 1245.65 1560.44 1245.65 1560.69 1247.14 C 1563.27 1262.92 1563.24 1278.67 1563.25 1294.63 C 1563.25 1295.81 1563.25 1296.99 1563.25 1298.21 C 1563.25 1315.38 1562.73 1332.03 1560 1349 C 1559.78 1350.6 1559.56 1352.19 1559.34 1353.79 C 1552.98 1398.61 1534.07 1444.7 1503 1478 C 1501.87 1479.31 1500.74 1480.62 1499.63 1481.94 C 1490.94 1491.84 1481.53 1500.15 1471 1508 C 1470.44 1508.42 1469.88 1508.84 1469.3 1509.28 C 1423.48 1543.54 1367.76 1561.34 1311.44 1568.19 C 1309.57 1568.42 1309.57 1568.42 1307.67 1568.66 C 1279.67 1571.86 1251.55 1572.41 1223.4 1572.38 C 1220.71 1572.38 1218.02 1572.38 1215.32 1572.38 C 1194.29 1572.37 1173.33 1572.19 1152.38 1570.19 C 1151.51 1570.11 1150.64 1570.02 1149.75 1569.94 C 1140.31 1569 1131.04 1567.55 1121.73 1565.71 C 1118.24 1565.05 1114.74 1564.48 1111.22 1563.96 C 1057.88 1555.95 1005.33 1532.93 965 1497 C 964.379 1496.45 963.758 1495.89 963.118 1495.33 C 954.998 1488.05 947.689 1480.64 941 1472 C 939.522 1470.25 938.043 1468.5 936.562 1466.75 C 911.996 1436.53 899.456 1400.61 889.666 1363.46 C 888.811 1360.3 888.853 1356.18 887.948 1353.03 Z M 1286.08 1012.56 C 1299.05 1005.07 1306.46 996.278 1308.64 993.104 C 1322.73 972.595 1318.45 947.592 1314.29 933.235 C 1311.31 922.93 1301.9 911.102 1292.16 904.401 C 1278.92 895.291 1262.81 891.476 1245.78 889.531 C 1233.11 888.083 1194.86 887.644 1169.02 892.045 C 1146.87 895.819 1136.15 904.182 1132.35 906.881 C 1125.03 912.082 1110.82 924.108 1105.4 940.743 C 1099.86 957.781 1100.33 998.104 1100.17 1019.98 C 1114.61 1019.99 1237.62 1019.38 1251.55 1019.25 C 1256.47 1019.2 1276.78 1017.93 1286.08 1012.56 Z M 1241.02 1172.31 C 1239.41 1172.32 1100.27 1170.37 1100.25 1172.07 C 1100.05 1184.61 1098.13 1226.85 1098.62 1246.55 C 1099.08 1264.89 1098.87 1314.58 1109.55 1332.18 C 1112.99 1337.83 1125.13 1365.6 1152.7 1374.36 C 1178.01 1382.41 1188.32 1382.43 1194.8 1383.56 C 1200.7 1384.58 1261.66 1384.05 1279.27 1380.32 C 1292.2 1377.59 1347.21 1372.92 1352.36 1288.11 C 1356.27 1223.59 1324.54 1199.49 1323.53 1198.38 C 1319.5 1193.94 1320.21 1182.64 1287.6 1177.49 C 1256.03 1166.84 1244.26 1172.27 1241.02 1172.31 Z" fill="#7BB7E4"/>
    <path d="M 788.113 481.832 C 790.219 481.829 792.325 481.825 794.43 481.822 C 798.825 481.816 803.22 481.814 807.614 481.815 C 812.06 481.815 816.505 481.808 820.951 481.794 C 881.434 481.611 881.434 481.611 910.125 486.75 C 911.652 487.014 913.179 487.279 914.707 487.543 C 927.92 489.861 941.015 492.619 954 496 C 954.853 496.221 955.706 496.442 956.585 496.669 C 1012.55 511.508 1064.87 543.695 1099 591 C 1099.4 591.548 1099.8 592.096 1100.21 592.66 C 1120.83 621.286 1132.85 655.054 1139.88 689.375 C 1140.09 690.428 1140.31 691.48 1140.53 692.565 C 1141.55 697.804 1142.26 702.662 1142 708 C 1141.35 708.07 1140.7 708.14 1140.04 708.212 C 1067.1 716.212 987.882 742.419 940.25 801.75 C 939.158 803.161 938.072 804.575 937 806 C 935.81 802.43 936.264 800.634 936.914 796.945 C 938.239 788.244 938.396 779.665 938.375 770.875 C 938.374 769.655 938.374 769.655 938.374 768.411 C 938.329 750.983 936.415 734.994 929 719 C 928.509 717.925 928.017 716.85 927.511 715.742 C 923.248 707.134 917.763 700.683 911 694 C 910.416 693.406 909.832 692.811 909.23 692.199 C 897.498 681.18 880.375 674.66 864.696 672.359 C 863.395 672.168 863.395 672.168 862.067 671.972 C 852.87 670.712 843.757 670.545 834.488 670.566 C 832.696 670.562 830.905 670.556 829.113 670.55 C 825.397 670.542 821.68 670.544 817.963 670.554 C 813.25 670.565 808.538 670.545 803.825 670.516 C 800.138 670.497 796.452 670.498 792.765 670.504 C 791.029 670.504 789.293 670.498 787.557 670.485 C 772.865 670.394 758.87 672.325 745.25 678.187 C 744.554 678.482 743.859 678.777 743.142 679.081 C 721.778 688.533 708.307 705.806 699.875 727.125 C 694.734 741.839 693.88 757.557 693.794 773.011 C 693.784 774.144 693.775 775.277 693.764 776.445 C 693.733 780.145 693.708 783.846 693.683 787.547 C 693.663 790.13 693.642 792.714 693.62 795.298 C 693.571 801.375 693.526 807.452 693.482 813.529 C 693.433 820.455 693.378 827.381 693.323 834.308 C 693.209 848.538 693.102 862.769 693 877 C 712.421 876.963 731.842 876.902 751.263 876.816 C 760.283 876.776 769.303 876.744 778.323 876.729 C 786.196 876.716 794.07 876.689 801.943 876.645 C 806.101 876.623 810.26 876.607 814.418 876.608 C 846.28 876.607 881.819 875.278 907 853 C 906.299 856.366 906.053 857.93 904.875 861.062 C 896.315 883.825 889.292 907.679 886.5 931.812 C 886.382 932.784 886.265 933.755 886.144 934.756 C 885.889 936.914 885.646 939.074 885.411 941.234 C 885.122 943.88 884.811 946.518 884.483 949.158 C 882.444 966.624 882.556 984.186 882.399 1001.75 C 882.358 1006.07 882.307 1010.4 882.258 1014.72 C 882.162 1023.15 882.077 1031.57 882 1040 C 880.374 1039.71 878.75 1039.42 877.125 1039.13 C 876.22 1038.96 875.315 1038.8 874.383 1038.63 C 872.57 1038.29 870.757 1037.94 868.968 1037.49 C 860.851 1035.59 852.729 1035.69 844.443 1035.68 C 842.786 1035.67 841.129 1035.66 839.473 1035.65 C 835.002 1035.62 830.532 1035.61 826.062 1035.6 C 821.38 1035.58 816.698 1035.55 812.016 1035.53 C 803.163 1035.48 794.309 1035.44 785.455 1035.41 C 775.371 1035.37 765.286 1035.32 755.201 1035.27 C 734.467 1035.17 713.734 1035.08 693 1035 C 693.07 1040.35 693.158 1045.7 693.262 1051.05 C 693.295 1052.86 693.323 1054.67 693.346 1056.48 C 693.749 1087.34 699.04 1117.18 721.078 1140.17 C 740.265 1158.54 766.126 1163.5 791.679 1163.4 C 793.545 1163.4 795.411 1163.4 797.277 1163.41 C 801.165 1163.41 805.053 1163.4 808.941 1163.39 C 813.874 1163.37 818.808 1163.38 823.742 1163.4 C 827.589 1163.41 831.436 1163.41 835.283 1163.4 C 837.1 1163.4 838.917 1163.4 840.734 1163.41 C 851.174 1163.44 861.054 1162.82 871.299 1160.74 C 874.865 1160.03 878.397 1159.48 882 1159 C 882.002 1159.72 888.132 1349.03 888 1353 C 885.479 1353.32 882.959 1353.63 880.437 1353.94 C 879.752 1354.02 879.067 1354.11 878.361 1354.2 C 863.676 1355.98 849.029 1356.17 834.258 1356.2 C 833.231 1356.21 832.205 1356.21 831.148 1356.21 C 825.702 1356.23 820.256 1356.24 814.811 1356.24 C 810.386 1356.24 805.961 1356.26 801.535 1356.28 C 765.745 1356.46 731.202 1355.04 696 1348 C 694.368 1347.68 694.368 1347.68 692.703 1347.35 C 654.57 1339.65 616.901 1325.55 585 1303 C 584.068 1302.34 583.136 1301.68 582.176 1301.01 C 562.677 1287.03 545.349 1271.23 531 1252 C 530.585 1251.46 530.171 1250.91 529.743 1250.35 C 514.073 1229.8 502.915 1206.52 495 1182 C 494.717 1181.14 494.435 1180.29 494.144 1179.4 C 488.656 1162.53 485.534 1145.54 483 1128 C 482.872 1127.14 482.745 1126.28 482.613 1125.39 C 479.627 1104.93 479.853 1084.38 479.869 1063.76 C 479.871 1059.52 479.868 1055.28 479.865 1051.05 C 479.861 1042.76 479.862 1034.48 479.864 1026.2 C 479.867 1019.46 479.867 1012.72 479.866 1005.98 C 479.866 1005.02 479.866 1004.05 479.865 1003.06 C 479.865 1001.11 479.865 999.15 479.864 997.193 C 479.862 978.884 479.865 960.574 479.87 942.265 C 479.875 926.597 479.874 910.929 479.869 895.262 C 479.864 877.021 479.862 858.781 479.865 840.54 C 479.865 838.59 479.866 836.639 479.866 834.689 C 479.866 833.73 479.866 832.77 479.866 831.782 C 479.867 825.063 479.866 818.344 479.863 811.625 C 479.861 803.419 479.861 795.212 479.867 787.006 C 479.869 782.829 479.87 778.652 479.867 774.475 C 479.833 728.423 479.833 728.423 482.625 709 C 482.794 707.801 482.964 706.603 483.139 705.368 C 489.642 661.985 504.668 621.286 531 586 C 531.664 585.101 532.327 584.203 533.011 583.277 C 537.194 577.843 541.835 572.832 546.5 567.812 C 547.117 567.147 547.734 566.481 548.37 565.795 C 552.674 561.225 557.219 557.064 562 553 C 563.407 551.77 563.407 551.77 564.843 550.516 C 597.578 522.595 637.964 504.655 679.519 494.611 C 681.67 494.081 683.804 493.516 685.937 492.922 C 706.395 487.367 727.878 484.445 749 483 C 750.138 482.918 751.276 482.836 752.449 482.752 C 764.34 481.944 776.198 481.836 788.113 481.832 Z" fill="#27538F"/>
    <path d="M 1454.11 1098.91 C 1496.55 1116.79 1531.61 1159.63 1549 1201 C 1554.48 1214.94 1557.68 1229.47 1560.19 1244.19 C 1560.36 1245.16 1560.52 1246.13 1560.69 1247.14 C 1563.27 1262.92 1563.24 1278.67 1563.25 1294.63 C 1563.25 1295.81 1563.25 1296.99 1563.25 1298.21 C 1563.25 1315.38 1562.73 1332.03 1560 1349 C 1559.78 1350.6 1559.56 1352.19 1559.34 1353.79 C 1552.98 1398.61 1534.07 1444.7 1503 1478 C 1501.87 1479.31 1500.74 1480.62 1499.63 1481.94 C 1490.94 1491.84 1481.53 1500.15 1471 1508 C 1470.44 1508.42 1469.88 1508.84 1469.3 1509.28 C 1423.48 1543.54 1367.76 1561.34 1311.44 1568.19 C 1310.19 1568.34 1308.95 1568.5 1307.67 1568.66 C 1279.67 1571.86 1251.55 1572.41 1223.4 1572.38 C 1220.71 1572.38 1218.02 1572.38 1215.32 1572.38 C 1194.29 1572.37 1173.33 1572.19 1152.38 1570.19 C 1151.51 1570.11 1150.64 1570.02 1149.75 1569.94 C 1140.31 1569 1131.04 1567.55 1121.73 1565.71 C 1118.24 1565.05 1114.74 1564.48 1111.22 1563.96 C 1057.88 1555.95 1005.33 1532.93 965 1497 C 964.069 1496.17 964.069 1496.17 963.119 1495.33 C 954.998 1488.05 947.689 1480.64 941 1472 C 939.522 1470.25 938.043 1468.5 936.563 1466.75 C 914.219 1439.27 901.35 1406.64 892.125 1372.81 C 891.922 1372.08 891.718 1371.36 891.509 1370.6 C 889.981 1364.78 888.423 1358.99 888.011 1353 C 889.002 1352.84 890.982 1352.68 892.003 1352.51 C 968.319 1340.1 1047.26 1315.94 1095.18 1250.48 C 1097 1248 1097 1248 1099 1246 C 1099.01 1246.55 1099.02 1247.09 1099.03 1247.65 C 1099.11 1253.4 1099.21 1259.14 1099.32 1264.88 C 1099.36 1267.02 1099.39 1269.15 1099.42 1271.29 C 1099.87 1301.13 1103.28 1333.03 1125.25 1355.35 C 1147.4 1376.69 1176.72 1382.14 1206.41 1382.17 C 1207.8 1382.17 1209.18 1382.17 1210.56 1382.18 C 1213.45 1382.18 1216.33 1382.19 1219.22 1382.18 C 1222.87 1382.18 1226.52 1382.2 1230.17 1382.22 C 1233.02 1382.23 1235.88 1382.23 1238.73 1382.23 C 1240.72 1382.23 1242.7 1382.24 1244.69 1382.25 C 1274.21 1382.18 1305.29 1375.24 1327 1354 C 1336.54 1343.68 1342.91 1331.64 1346.81 1318.19 C 1347.01 1317.53 1347.2 1316.86 1347.4 1316.18 C 1350.83 1303.33 1351.36 1289.82 1351.32 1276.59 C 1351.31 1274.37 1351.34 1272.15 1351.36 1269.93 C 1351.42 1257.12 1349.43 1245.04 1345.25 1232.88 C 1344.99 1232.12 1344.73 1231.37 1344.47 1230.59 C 1337.3 1210.39 1323.76 1195.23 1304.42 1185.87 C 1283.86 1176.34 1262.43 1173.87 1240 1172 C 1240 1171.67 1240 1171.34 1240 1171 C 1240.83 1170.9 1241.67 1170.81 1242.53 1170.71 C 1261.19 1168.56 1279.61 1165.95 1298 1162 C 1299.17 1161.75 1300.34 1161.51 1301.55 1161.26 C 1328.7 1155.5 1354.54 1147.05 1380 1136 C 1380.84 1135.64 1381.68 1135.28 1382.55 1134.91 C 1402.43 1126.41 1450.01 1097.77 1450.94 1097.08 L 1454.11 1098.91 Z" fill="#3B7EC3"/>
    <path d="M 1100 1020 C 1099.98 1018.4 1101.14 968.088 1102.88 952.704 C 1104.12 941.802 1142 1019.47 1142 1020 C 1128.14 1020 1114.28 1020 1100 1020 Z" fill="#264F86"/>
    <path d="M 1100 1172 C 1111.55 1172 1123.1 1172 1135 1172 C 1131.31 1194.15 1099.67 1245.88 1098.99 1245.88 C 1098.99 1222.78 1100 1195.8 1100 1172 Z" fill="#285389"/>
  </g>
</svg>